<svg xmlns="http://www.w3.org/2000/svg" width="64" height="64" viewBox="0 0 64 64" fill="none">
  <path d="M22 10c12-6 28 2 30 18 2 17-10 30-25 30C11 58 4 44 8 30c3-10 7-16 14-20Z" fill="#FF8C36" fill-opacity="0.18"/>
  <path d="M22 10c12-6 28 2 30 18 2 17-10 30-25 30C11 58 4 44 8 30c3-10 7-16 14-20Z" stroke="#FF8C36" stroke-width="2"/>
  <circle cx="24" cy="26" r="2" fill="#2e2e2e" fill-opacity="0.55"/>
  <circle cx="39" cy="24" r="2" fill="#2e2e2e" fill-opacity="0.55"/>
  <circle cx="33" cy="38" r="2" fill="#2e2e2e" fill-opacity="0.55"/>
</svg>
